<?xml version="1.0" encoding="UTF-8"?>
<svg width="141px" height="193px" viewBox="0 0 141 193" version="1.1" xmlns="http://www.w3.org/2000/svg" xmlns:xlink="http://www.w3.org/1999/xlink">
    <defs>
        <path d="M6.83367285,37.2210784 C2.62887786,33.2967001 0,27.7053537 0,21.5 C0,9.62587788 9.62587788,0 21.5,0 C33.3741221,0 43,9.62587788 43,21.5 C43,27.3719837 40.645997,32.6941606 36.830201,36.5743206 L21.5,55 L6.83367285,37.2210784 Z" id="path-1"></path>
    </defs>
    <g id="Page-1" stroke="none" stroke-width="1" fill="none" fill-rule="evenodd">
        <g id="comments-copy" transform="translate(-879.000000, -644.000000)">
            <g id="Group-5" transform="translate(877.000000, 644.000000)">
                <g id="Group-4" transform="translate(7.000000, 0.000000)">
                    <path d="M63.5,86 L66.5,86 C96.0472341,86 120,109.952766 120,139.5 L120,183 C120,188.522847 115.522847,193 110,193 L20,193 C14.4771525,193 10,188.522847 10,183 L10,139.5 C10,109.952766 33.9527659,86 63.5,86 Z" id="Rectangle-23" fill="#F1F8FB"></path>
                    <path d="M50.8336728,123.221078 C46.6288779,119.2967 44,113.705354 44,107.5 C44,95.6258779 53.6258779,86 65.5,86 C77.3741221,86 87,95.6258779 87,107.5 C87,113.371984 84.645997,118.694161 80.830201,122.574321 L65.5,141 L50.8336728,123.221078 Z" id="Combined-Shape" fill="#FBE16A"></path>
                    <g id="Path-2" transform="translate(44.000000, 86.000000)">
                        <mask id="mask-2" fill="white">
                            <use xlink:href="#path-1"></use>
                        </mask>
                        <use id="Mask" fill="#FBE16A" xlink:href="#path-1"></use>
                        <path d="M14.0388532,46.9834058 L17.6527811,30.7329321 C14.7495231,27.3102137 13.2757163,25.2983283 13.2313608,24.6972758 C13.1870053,24.0962234 14.660812,24.0962234 17.6527811,24.6972758 L26.0895394,24.6972758 L30.3705975,24.108465 L26.0895394,30.7329321 L29.8791609,49.7187793 L22.7487342,57.7924574 L14.0388532,46.9834058 Z" fill="#8B572A" mask="url(#mask-2)"></path>
                    </g>
                    <rect id="Rectangle-24" fill="#FF94AD" x="53" y="87" width="25" height="25" rx="9"></rect>
                    <g id="Group-3">
                        <path d="M27.857537,41.6219736 C28.3749174,42.4470793 28.7391309,43.3872168 28.9041209,44.4091342 C28.9679378,44.8044046 29,45.2041506 29,45.6045394 L28.9999977,46.930365 C28.9999977,51.0724994 25.6421343,54.4303627 21.5,54.4303627 C20.5034022,54.4303627 19.5167981,54.2317404 18.5978368,53.8461017 C14.1695092,51.9877705 10.6361639,50.0002779 7.99780074,47.8836239 C3.54561255,44.3118101 0.901447994,39.7781063 0.0653070631,34.2825127 C1.41171073,36.4006683 4.08531911,37.7696872 8.0861322,38.3895692 C7.39690636,37.2554732 7,35.9240878 7,34.5 L7,31.5 C7,27.3578644 10.3578644,24 14.5,24 L25.5,24 C29.6421356,24 33,27.3578644 33,31.5 L33,34.5 C33,37.8185405 30.8446949,40.6336824 27.857537,41.6219736 Z" id="Combined-Shape" fill="#F1F8FB"></path>
                        <path d="M124.857537,41.6219736 C125.374917,42.4470793 125.739131,43.3872168 125.904121,44.4091342 C125.967938,44.8044046 126,45.2041506 126,45.6045394 L125.999998,46.930365 C125.999998,51.0724994 122.642134,54.4303627 118.5,54.4303627 C117.503402,54.4303627 116.516798,54.2317404 115.597837,53.8461017 C111.169509,51.9877705 107.636164,50.0002779 104.997801,47.8836239 C100.545613,44.3118101 97.901448,39.7781063 97.0653071,34.2825127 C98.4117107,36.4006683 101.085319,37.7696872 105.086132,38.3895692 C104.396906,37.2554732 104,35.9240878 104,34.5 L104,31.5 C104,27.3578644 107.357864,24 111.5,24 L122.5,24 C126.642136,24 130,27.3578644 130,31.5 L130,34.5 C130,37.8185405 127.844695,40.6336824 124.857537,41.6219736 Z" id="Combined-Shape-Copy" fill="#F1F8FB" transform="translate(113.532654, 39.215181) scale(-1, 1) translate(-113.532654, -39.215181) "></path>
                        <ellipse id="Oval-2" fill="#FF94AD" cx="106" cy="53.5" rx="8" ry="10.5"></ellipse>
                        <ellipse id="Oval-2-Copy" fill="#FF94AD" cx="26" cy="53.5" rx="8" ry="10.5"></ellipse>
                        <rect id="Rectangle-21" fill="#FFCED9" x="26" y="0" width="80" height="94" rx="28"></rect>
                        <path d="M60.9459582,40 L70.0540418,40 C70.0182214,39.5046707 70,39.0044632 70,38.5 C70,27.1781626 79.1781626,18 90.5,18 C101.821837,18 111,27.1781626 111,38.5 C111,49.8218374 101.821837,59 90.5,59 C81.7772101,59 74.326856,53.5520545 71.365915,45.8731409 C71.0917511,45.9556551 70.8010542,46 70.5,46 L60.5,46 C60.1989458,46 59.9082489,45.9556551 59.634085,45.8731409 C56.673144,53.5520545 49.2227899,59 40.5,59 C29.1781626,59 20,49.8218374 20,38.5 C20,27.1781626 29.1781626,18 40.5,18 C51.8218374,18 61,27.1781626 61,38.5 C61,39.0044632 60.9817786,39.5046707 60.9459582,40 Z" id="Combined-Shape" fill-opacity="0.640483469" fill="#FFFFFF"></path>
                        <path d="M86,75 C86,63.954305 77.045695,55 66,55 C54.954305,55 46,63.954305 46,75 C64.0381325,75 71.4905579,75 86,75 Z" id="Oval-4" fill="#FFFFFF"></path>
                        <ellipse id="Oval-2-Copy-2" fill="#FF94AD" cx="66" cy="55" rx="8" ry="9"></ellipse>
                        <rect id="Rectangle-16" stroke="#979797" fill="#9B9B9B" x="84.5" y="36.5" width="5" height="8" rx="2.5"></rect>
                        <rect id="Rectangle-16-Copy" stroke="#979797" fill="#9B9B9B" x="44.5" y="36.5" width="5" height="8" rx="2.5"></rect>
                        <rect id="Rectangle-22" fill="#BBDFFF" x="79" y="28" width="16" height="7" rx="3.5"></rect>
                        <rect id="Rectangle-22-Copy" fill="#BBDFFF" x="38" y="28" width="16" height="7" rx="3.5"></rect>
                    </g>
                    <rect id="Rectangle-17" fill="#DFECF2" x="63" y="149" width="5" height="22" rx="2.5"></rect>
                    <rect id="Rectangle-17-Copy" fill="#DFECF2" transform="translate(95.500000, 140.000000) rotate(90.000000) translate(-95.500000, -140.000000) " x="93" y="129" width="5" height="22" rx="2.5"></rect>
                </g>
                <path d="M114.983521,97.1569146 L129.532703,99.4612788 C133.662314,100.115345 136.70301,103.675542 136.70301,107.85663 L136.70301,184.166414 C136.70301,188.860834 132.89743,192.666414 128.20301,192.666414 C127.909128,192.666414 127.615444,192.651173 127.323141,192.620752 L112.41511,191.069227 L114.983521,97.1569146 Z" id="Rectangle-25" fill="#F1F8FB" transform="translate(124.559060, 144.911664) rotate(-9.000000) translate(-124.559060, -144.911664) "></path>
                <path d="M12.0031799,97.2621627 L26.5523623,99.5665268 C30.6819735,100.220593 33.7226693,103.78079 33.7226693,107.961878 L33.7226693,184.42038 C33.7226693,189.114801 29.9170897,192.92038 25.2226693,192.92038 C24.9736437,192.92038 24.7247384,192.909437 24.4766738,192.887581 L8.07747858,191.442744 L12.0031799,97.2621627 Z" id="Rectangle-25-Copy" fill="#F1F8FB" transform="translate(20.900074, 145.091271) scale(-1, 1) rotate(-9.000000) translate(-20.900074, -145.091271) "></path>
            </g>
        </g>
    </g>
</svg>
